<svg xmlns="http://www.w3.org/2000/svg" viewBox="0 0 320 180" role="img" aria-label="aim_deagle7k"><rect width="320" height="180" fill="#17151F"/><path d="M0 0V180" stroke="#1F1C2A" stroke-width="1"/><path d="M20 0V180" stroke="#1F1C2A" stroke-width="1"/><path d="M40 0V180" stroke="#1F1C2A" stroke-width="1"/><path d="M60 0V180" stroke="#1F1C2A" stroke-width="1"/><path d="M80 0V180" stroke="#1F1C2A" stroke-width="1"/><path d="M100 0V180" stroke="#1F1C2A" stroke-width="1"/><path d="M120 0V180" stroke="#1F1C2A" stroke-width="1"/><path d="M140 0V180" stroke="#1F1C2A" stroke-width="1"/><path d="M160 0V180" stroke="#1F1C2A" stroke-width="1"/><path d="M180 0V180" stroke="#1F1C2A" stroke-width="1"/><path d="M200 0V180" stroke="#1F1C2A" stroke-width="1"/><path d="M220 0V180" stroke="#1F1C2A" stroke-width="1"/><path d="M240 0V180" stroke="#1F1C2A" stroke-width="1"/><path d="M260 0V180" stroke="#1F1C2A" stroke-width="1"/><path d="M280 0V180" stroke="#1F1C2A" stroke-width="1"/><path d="M300 0V180" stroke="#1F1C2A" stroke-width="1"/><path d="M320 0V180" stroke="#1F1C2A" stroke-width="1"/><path d="M0 0H320" stroke="#1F1C2A" stroke-width="1"/><path d="M0 20H320" stroke="#1F1C2A" stroke-width="1"/><path d="M0 40H320" stroke="#1F1C2A" stroke-width="1"/><path d="M0 60H320" stroke="#1F1C2A" stroke-width="1"/><path d="M0 80H320" stroke="#1F1C2A" stroke-width="1"/><path d="M0 100H320" stroke="#1F1C2A" stroke-width="1"/><path d="M0 120H320" stroke="#1F1C2A" stroke-width="1"/><path d="M0 140H320" stroke="#1F1C2A" stroke-width="1"/><path d="M0 160H320" stroke="#1F1C2A" stroke-width="1"/><path d="M0 180H320" stroke="#1F1C2A" stroke-width="1"/><rect x="104" y="120" width="24" height="22" rx="2" fill="#3A3548" fill-opacity="1"/><rect x="132" y="120" width="24" height="22" rx="2" fill="#2C2838" fill-opacity="1"/><rect x="160" y="120" width="24" height="22" rx="2" fill="#3A3548" fill-opacity="1"/><rect x="188" y="120" width="24" height="22" rx="2" fill="#2C2838" fill-opacity="1"/><rect x="118" y="94" width="24" height="22" rx="2" fill="#2C2838" fill-opacity="1"/><rect x="146" y="94" width="24" height="22" rx="2" fill="#3A3548" fill-opacity="1"/><rect x="174" y="94" width="24" height="22" rx="2" fill="#2C2838" fill-opacity="1"/><rect x="132" y="68" width="24" height="22" rx="2" fill="#3A3548" fill-opacity="1"/><rect x="160" y="68" width="24" height="22" rx="2" fill="#2C2838" fill-opacity="1"/><rect x="146" y="42" width="24" height="22" rx="2" fill="#2C2838" fill-opacity="1"/><rect x="146" y="24" width="28" height="10" rx="2" fill="#E0C36A" fill-opacity="0.6"/><rect x="24" y="70" width="12" height="40" rx="2" fill="#9B8AC4" fill-opacity="0.85"/><rect x="284" y="70" width="12" height="40" rx="2" fill="#E0C36A" fill-opacity="0.85"/><rect x="12" y="146" width="120.80000000000001" height="24" rx="3" fill="#0F0E13" fill-opacity="0.85"/><text x="22" y="163" font-family="IBM Plex Mono, ui-monospace, monospace" font-size="13" fill="#ECEDEF">aim_deagle7k</text></svg>
